<?xml version="1.0" standalone="no"?>
<!DOCTYPE svg PUBLIC "-//W3C//DTD SVG 20010904//EN"
 "http://www.w3.org/TR/2001/REC-SVG-20010904/DTD/svg10.dtd">
<svg version="1.0" xmlns="http://www.w3.org/2000/svg"
 width="720.000000pt" height="720.000000pt" viewBox="0 0 720.000000 720.000000"
 preserveAspectRatio="xMidYMid meet">
<metadata>
Created by potrace 1.16, written by Peter Selinger 2001-2019
</metadata>
<g transform="translate(0.000000,720.000000) scale(0.100000,-0.100000)"
fill="#000000" stroke="none">
<path d="M1870 6160 c0 -5 -18 -10 -40 -10 -22 0 -40 -4 -40 -10 0 -5 -15 -10
-34 -10 -19 0 -38 -4 -41 -10 -3 -5 -17 -10 -30 -10 -13 0 -27 -4 -30 -10 -3
-5 -15 -10 -26 -10 -10 0 -19 -4 -19 -10 0 -5 -9 -10 -20 -10 -11 0 -20 -4
-20 -10 0 -5 -9 -10 -20 -10 -11 0 -20 -4 -20 -10 0 -5 -9 -10 -20 -10 -11 0
-20 -4 -20 -10 0 -5 -9 -10 -19 -10 -11 0 -21 -4 -23 -8 -1 -5 -25 -23 -52
-42 -55 -37 -216 -194 -216 -210 0 -5 -4 -10 -10 -10 -5 0 -10 -7 -10 -15 0
-8 -4 -15 -10 -15 -5 0 -10 -7 -10 -15 0 -8 -4 -15 -10 -15 -5 0 -10 -9 -10
-19 0 -11 -3 -21 -7 -23 -11 -4 -53 -87 -53 -104 0 -8 -4 -14 -10 -14 -5 0
-10 -9 -10 -19 0 -11 -4 -23 -10 -26 -5 -3 -10 -22 -10 -41 0 -19 -4 -34 -10
-34 -5 0 -10 -18 -10 -40 0 -22 -4 -40 -10 -40 -6 0 -10 -55 -10 -145 0 -90 4
-145 10 -145 6 0 10 -9 10 -20 0 -11 -4 -20 -10 -20 -6 0 -10 -50 -10 -130 0
-80 4 -130 10 -130 6 0 10 -9 10 -20 0 -11 5 -20 10 -20 6 0 10 -8 10 -18 0
-10 9 -24 20 -32 11 -8 20 -22 20 -30 0 -9 15 -33 34 -53 l34 -37 2462 0 2462
0 34 37 c19 20 34 44 34 53 0 8 9 22 20 30 11 8 20 22 20 32 0 10 5 18 10 18
6 0 10 9 10 20 0 11 5 20 10 20 6 0 10 50 10 130 0 80 -4 130 -10 130 -5 0
-10 9 -10 20 0 11 5 20 10 20 6 0 10 55 10 145 0 90 -4 145 -10 145 -5 0 -10
18 -10 40 0 22 -4 40 -10 40 -5 0 -10 18 -10 40 0 22 -4 40 -10 40 -5 0 -10 9
-10 20 0 11 -4 20 -10 20 -5 0 -10 6 -10 13 0 18 -24 67 -32 67 -5 0 -8 9 -8
20 0 11 -4 20 -10 20 -5 0 -10 9 -10 20 0 11 -4 20 -10 20 -5 0 -10 7 -10 15
0 8 -4 15 -10 15 -5 0 -10 6 -10 14 0 20 -174 194 -235 236 -27 19 -51 37 -53
42 -2 4 -12 8 -23 8 -10 0 -19 5 -19 10 0 6 -9 10 -20 10 -11 0 -20 5 -20 10
0 6 -9 10 -20 10 -11 0 -20 5 -20 10 0 6 -9 10 -20 10 -11 0 -20 5 -20 10 0 6
-9 10 -19 10 -11 0 -23 5 -26 10 -3 6 -17 10 -30 10 -13 0 -27 5 -30 10 -3 6
-22 10 -41 10 -19 0 -34 5 -34 10 0 6 -20 10 -45 10 -25 0 -45 5 -45 10 0 6
-103 10 -290 10 -187 0 -290 -4 -290 -10 0 -5 -22 -10 -50 -10 -27 0 -50 -4
-50 -10 0 -5 -16 -10 -35 -10 -19 0 -35 -4 -35 -10 0 -5 -13 -10 -30 -10 -16
0 -30 -4 -30 -10 0 -5 -6 -10 -13 -10 -18 0 -67 -24 -67 -32 0 -5 -9 -8 -20
-8 -11 0 -20 -4 -20 -10 0 -5 -6 -10 -13 -10 -7 0 -23 -9 -35 -20 -12 -12 -22
-16 -22 -10 0 5 -7 10 -15 10 -8 0 -15 3 -15 8 0 8 -49 32 -67 32 -7 0 -13 5
-13 10 0 6 -9 10 -20 10 -11 0 -20 5 -20 10 0 6 -13 10 -30 10 -16 0 -30 5
-30 10 0 6 -13 10 -30 10 -16 0 -30 5 -30 10 0 6 -13 10 -29 10 -17 0 -33 5
-36 10 -3 6 -26 10 -51 10 -24 0 -44 5 -44 10 0 6 -110 10 -310 10 -200 0
-310 -4 -310 -10 0 -5 -22 -10 -50 -10 -27 0 -50 -4 -50 -10 0 -5 -13 -10 -30
-10 -16 0 -30 -4 -30 -10 0 -5 -13 -10 -30 -10 -16 0 -30 -4 -30 -10 0 -5 -9
-10 -19 -10 -11 0 -23 -4 -26 -10 -3 -5 -15 -10 -26 -10 -10 0 -19 -3 -19 -8
0 -4 -15 -14 -32 -22 -18 -7 -42 -22 -52 -32 -18 -17 -20 -17 -36 2 -10 11
-25 20 -34 20 -9 0 -16 5 -16 10 0 6 -9 10 -20 10 -11 0 -20 5 -20 10 0 6 -9
10 -19 10 -11 0 -23 5 -26 10 -3 6 -17 10 -31 10 -13 0 -24 5 -24 10 0 6 -16
10 -35 10 -19 0 -35 5 -35 10 0 6 -13 10 -30 10 -16 0 -30 5 -30 10 0 6 -22
10 -50 10 -27 0 -50 5 -50 10 0 6 -95 10 -265 10 -170 0 -265 -4 -265 -10z
m387 -200 c62 0 103 -4 103 -10 0 -5 20 -10 45 -10 25 0 45 -4 45 -10 0 -5 11
-10 25 -10 14 0 33 -4 43 -9 9 -5 28 -13 42 -19 38 -14 124 -56 130 -62 3 -3
17 -11 33 -19 15 -8 27 -18 27 -23 0 -4 5 -8 10 -8 14 0 108 -95 140 -140 13
-19 27 -37 30 -40 3 -3 13 -21 23 -41 26 -57 51 -73 112 -73 29 0 60 6 69 13
35 29 62 121 36 121 -5 0 -10 9 -10 20 0 11 -4 20 -10 20 -5 0 -10 7 -10 16 0
15 -39 74 -70 104 -8 8 -23 30 -33 48 -16 28 -16 32 -3 32 9 0 16 5 16 10 0 6
9 10 20 10 11 0 20 5 20 10 0 6 9 10 19 10 11 0 23 5 26 10 3 6 19 10 35 10
16 0 32 5 35 10 3 6 24 10 45 10 21 0 42 5 45 10 4 6 57 10 126 10 78 0 126 4
139 12 16 10 24 10 40 0 12 -7 57 -12 119 -12 56 0 103 -4 106 -10 3 -5 21
-10 40 -10 19 0 37 -4 40 -10 3 -5 22 -10 41 -10 19 0 34 -4 34 -10 0 -5 11
-10 25 -10 14 0 25 -4 25 -10 0 -5 6 -10 14 -10 17 0 100 -42 104 -52 2 -5 10
-8 18 -8 8 0 26 -11 40 -25 14 -14 29 -25 34 -25 11 0 110 -96 110 -107 0 -4
12 -21 26 -38 14 -16 33 -45 42 -65 27 -59 48 -71 117 -68 l60 3 24 48 c21 40
23 52 13 68 -7 10 -12 26 -12 34 0 8 -4 15 -10 15 -5 0 -10 7 -10 14 0 13 -41
81 -72 121 -4 6 -16 21 -27 34 l-18 25 65 33 c36 18 76 33 88 33 13 0 26 5 29
10 3 6 24 10 45 10 21 0 42 5 45 10 4 6 58 10 129 10 80 0 126 4 134 12 9 9
18 9 37 0 14 -7 66 -12 115 -12 49 0 92 -4 95 -10 3 -5 21 -10 40 -10 19 0 37
-4 40 -10 3 -5 19 -10 36 -10 16 0 29 -4 29 -10 0 -5 8 -10 19 -10 27 0 203
-91 231 -120 8 -9 31 -27 50 -40 42 -29 80 -66 80 -77 0 -4 13 -22 30 -40 30
-31 57 -74 93 -148 11 -22 23 -48 28 -57 5 -10 9 -27 9 -37 0 -11 5 -23 10
-26 6 -3 10 -19 10 -35 0 -16 5 -32 10 -35 6 -3 10 -24 10 -46 l0 -39 -2400 0
-2400 0 0 39 c0 22 5 43 10 46 6 3 10 22 10 41 0 19 5 34 10 34 6 0 10 9 10
20 0 11 4 28 9 38 5 9 17 35 28 57 28 56 64 119 72 125 4 3 18 21 31 40 30 43
86 100 98 100 5 0 22 12 39 28 36 33 66 51 163 98 41 20 83 40 92 45 10 5 29
9 42 9 14 0 28 5 31 10 3 6 21 10 40 10 19 0 37 5 40 10 3 6 48 10 98 10 51 0
99 5 107 10 9 6 18 6 24 0 6 -6 56 -10 113 -10z m3663 -979 c51 -29 70 -62 70
-121 0 -44 -5 -61 -24 -83 -52 -60 88 -57 -2376 -57 -2464 0 -2324 -3 -2376
57 -19 22 -24 39 -24 84 0 49 4 60 30 87 16 17 42 34 57 38 16 3 33 7 38 9 6
2 1038 3 2295 2 1943 -2 2289 -4 2310 -16z"/>
<path d="M3375 4440 c-3 -5 -17 -10 -30 -10 -27 0 -118 -39 -154 -67 -39 -30
-81 -70 -81 -77 0 -4 -9 -16 -20 -28 -11 -12 -20 -29 -20 -37 0 -9 -7 -25 -15
-35 -8 -11 -15 -30 -15 -42 0 -13 -4 -26 -10 -29 -6 -4 -10 -60 -10 -134 0
-136 16 -211 52 -242 10 -9 18 -28 18 -43 0 -14 5 -26 10 -26 6 0 10 -13 10
-30 0 -16 5 -30 10 -30 6 0 10 -9 10 -20 0 -11 5 -20 10 -20 6 0 10 -9 10 -20
0 -11 5 -20 10 -20 6 0 10 -7 10 -15 0 -8 5 -15 10 -15 6 0 10 -9 10 -19 0
-11 3 -21 8 -23 4 -1 18 -24 31 -50 13 -27 28 -48 34 -48 5 0 -5 -13 -22 -29
-17 -16 -31 -34 -31 -40 0 -6 -18 -30 -40 -52 -22 -23 -40 -46 -40 -51 0 -5
-9 -18 -20 -30 -11 -12 -20 -30 -20 -40 0 -10 -4 -18 -10 -18 -5 0 -10 -9 -10
-20 0 -11 -4 -20 -10 -20 -5 0 -13 -18 -16 -40 -4 -21 -15 -47 -25 -56 -11 -9
-19 -27 -19 -40 0 -13 -4 -26 -10 -29 -5 -3 -10 -30 -10 -60 0 -30 -4 -57 -10
-60 -5 -3 -10 -44 -10 -91 0 -49 4 -84 10 -84 6 0 10 -16 10 -35 0 -19 4 -43
9 -53 5 -9 16 -34 25 -55 25 -59 113 -167 136 -167 6 0 20 -9 32 -20 12 -11
32 -20 44 -20 13 0 26 -4 29 -10 8 -13 362 -13 370 0 3 6 21 10 40 10 19 0 37
5 40 10 3 6 15 10 26 10 10 0 19 5 19 10 0 6 6 10 13 10 7 0 23 9 35 20 12 11
27 20 34 20 8 0 20 9 28 20 8 11 20 20 26 20 6 0 25 13 41 29 l31 29 63 -69
c35 -37 70 -68 77 -69 6 0 12 -4 12 -10 0 -5 9 -10 20 -10 11 0 20 -4 20 -10
0 -13 257 -13 265 0 3 6 13 10 22 10 41 0 56 72 23 108 -11 12 -20 25 -20 30
0 5 -36 46 -80 91 -44 45 -80 85 -80 88 0 4 -23 33 -52 66 -46 53 -50 61 -39
80 65 103 151 286 151 319 0 15 5 30 10 33 18 11 11 61 -13 83 -43 40 -177
102 -221 102 -45 -1 -76 -18 -76 -43 0 -9 -4 -19 -10 -22 -5 -3 -10 -17 -10
-30 0 -13 -4 -27 -10 -30 -5 -3 -10 -15 -10 -26 0 -10 -4 -19 -10 -19 -5 0
-10 -13 -10 -30 0 -16 -4 -30 -10 -30 -5 0 -10 -9 -10 -20 0 -11 -5 -20 -11
-20 -13 0 -119 109 -119 122 0 5 -6 15 -12 22 -41 42 -69 79 -86 113 -11 21
-29 47 -39 58 -19 20 -19 20 0 55 10 19 23 40 27 45 5 6 22 35 38 65 41 79 55
101 75 124 9 11 17 26 17 33 0 7 5 13 10 13 6 0 10 18 10 40 0 22 5 40 10 40
6 0 10 9 10 20 0 11 5 20 10 20 6 0 10 18 10 40 0 22 5 40 10 40 6 0 10 40 10
99 0 56 -4 103 -10 106 -5 3 -10 28 -10 56 0 27 -4 49 -10 49 -5 0 -10 12 -10
26 0 77 -182 244 -266 244 -13 0 -26 5 -29 10 -3 6 -52 10 -110 10 -58 0 -107
-4 -110 -10z m135 -330 c0 -5 6 -10 13 -10 19 0 44 -30 52 -62 4 -16 11 -28
16 -28 15 0 10 -60 -6 -76 -8 -9 -15 -26 -15 -39 0 -13 -5 -37 -11 -52 -6 -15
-15 -37 -19 -48 -10 -27 -24 -62 -44 -107 -18 -41 -36 -50 -36 -19 0 11 -4 23
-10 26 -5 3 -10 15 -10 26 0 10 -4 19 -10 19 -5 0 -10 11 -10 24 0 14 -4 28
-10 31 -5 3 -10 17 -10 30 0 13 -4 27 -10 30 -5 3 -10 19 -10 36 0 16 -4 29
-10 29 -5 0 -10 16 -10 35 0 19 5 35 10 35 6 0 10 10 10 23 0 33 22 76 43 83
9 3 17 10 17 15 0 5 16 9 35 9 19 0 35 -4 35 -10z m-37 -1063 c7 -7 19 -24 27
-39 14 -25 89 -114 138 -164 12 -13 22 -28 22 -34 0 -5 5 -10 10 -10 6 0 10
-5 10 -11 0 -6 14 -24 30 -39 17 -15 30 -36 30 -47 0 -10 -22 -38 -49 -63 -67
-62 -78 -70 -96 -70 -8 0 -15 -4 -15 -10 0 -5 -13 -10 -29 -10 -17 0 -33 -4
-36 -10 -3 -5 -29 -10 -56 -10 -40 0 -55 5 -74 24 -51 51 -65 91 -65 181 0 50
4 85 10 85 6 0 10 11 10 24 0 14 5 28 10 31 6 3 10 17 10 31 0 13 5 24 10 24
6 0 10 6 10 14 0 26 56 115 73 116 5 0 14 -6 20 -13z"/>
<path d="M5485 4440 c-4 -6 -80 -10 -194 -10 -192 0 -230 -6 -252 -42 -5 -7
-9 -63 -9 -123 0 -148 -4 -145 175 -145 l135 0 0 -102 c0 -57 0 -358 0 -670 0
-393 3 -569 10 -573 7 -4 8 -11 1 -18 -12 -16 -13 -134 -1 -142 13 -8 13 -45
0 -45 -6 0 -10 -43 -10 -110 0 -67 4 -110 10 -110 6 0 10 -16 10 -36 0 -23 6
-42 18 -50 20 -16 152 -19 152 -4 0 6 30 10 70 10 63 0 70 2 70 20 0 11 5 20
10 20 6 0 10 27 10 60 0 33 -4 60 -10 60 -5 0 -10 9 -10 20 0 11 5 20 10 20
15 0 12 77 -2 83 -10 4 -10 7 0 18 14 16 16 69 2 69 -7 0 -10 257 -10 750 l0
750 141 0 c108 0 144 3 155 14 11 11 14 45 14 144 0 128 0 129 -25 140 -33 15
-461 17 -470 2z"/>
<path d="M1377 4412 c-16 -17 -17 -105 -17 -1067 l0 -1048 28 -23 c24 -21 37
-24 114 -24 48 0 90 5 93 10 8 13 115 13 115 0 0 -6 33 -10 79 -10 44 0 83 5
86 10 3 6 30 10 60 10 30 0 57 5 60 10 3 6 15 10 26 10 10 0 19 5 19 10 0 6 9
10 20 10 11 0 20 5 20 10 0 6 6 10 14 10 28 0 104 80 135 142 17 35 31 71 31
80 0 9 5 20 10 23 13 8 14 528 1 553 -5 9 -15 44 -22 77 -7 33 -22 74 -33 90
-24 36 -105 115 -118 115 -5 0 7 14 27 31 19 17 35 37 35 44 0 7 4 15 8 17 5
2 24 37 43 78 l34 74 0 221 c0 207 -1 224 -24 293 -14 40 -33 81 -43 92 -10
10 -18 23 -18 28 0 15 -72 76 -118 100 -24 12 -57 22 -72 22 -16 0 -32 5 -35
10 -9 15 -185 13 -185 -2 0 -9 -3 -9 -12 0 -8 8 -62 12 -178 12 -149 0 -169
-2 -183 -18z m487 -319 c44 -56 46 -68 46 -259 0 -116 -4 -184 -10 -184 -5 0
-10 -7 -10 -15 0 -9 -16 -31 -35 -50 -32 -32 -39 -35 -95 -35 l-60 0 0 58 c-1
31 -1 128 0 215 1 110 -3 163 -11 173 -9 11 -9 18 -1 26 15 15 16 65 2 73 -27
17 -3 25 71 25 76 0 82 -2 103 -27z m-94 -863 c0 -5 25 -10 56 -10 32 0 60 -5
67 -13 19 -21 37 -56 37 -72 0 -8 5 -15 10 -15 6 0 10 -53 10 -139 0 -87 4
-142 10 -146 8 -5 8 -11 0 -20 -8 -9 -7 -21 2 -41 10 -22 10 -28 0 -32 -6 -2
-12 -19 -12 -37 0 -35 -13 -65 -46 -108 -21 -26 -26 -27 -113 -27 l-91 0 0
214 c0 152 -3 215 -11 218 -9 3 -9 9 0 25 6 12 11 60 11 107 0 85 0 86 25 86
14 0 25 5 25 10 0 6 5 10 10 10 6 0 10 -4 10 -10z"/>
<path d="M1131 2131 c-17 -16 -31 -36 -31 -45 0 -9 -6 -16 -13 -16 -14 0 -47
-35 -47 -50 0 -6 -4 -10 -10 -10 -5 0 -10 -9 -10 -19 0 -11 -4 -23 -10 -26
-15 -10 -13 -262 3 -268 10 -3 10 -9 0 -26 -16 -26 -19 -381 -3 -381 6 0 10
-13 10 -30 0 -16 5 -30 10 -30 6 0 10 -7 10 -16 0 -9 8 -24 18 -33 9 -9 23
-28 31 -42 7 -15 25 -33 40 -40 14 -8 33 -22 42 -31 9 -10 24 -18 33 -18 9 0
16 -4 16 -10 0 -7 803 -10 2390 -10 1587 0 2390 3 2390 10 0 6 7 10 16 10 9 0
24 8 33 18 9 9 28 23 42 31 15 7 33 25 40 40 8 14 22 33 31 42 10 9 18 24 18
33 0 9 5 16 10 16 6 0 10 9 10 20 0 11 5 20 10 20 6 0 10 73 10 200 0 127 -4
200 -10 200 -5 0 -10 7 -10 15 0 8 5 15 10 15 6 0 10 52 10 135 0 74 -3 135
-8 135 -4 0 -13 14 -21 32 -18 40 -42 68 -58 68 -7 0 -13 7 -13 16 0 9 -14 29
-31 45 l-31 29 -2448 0 -2448 0 -31 -29z m1218 -169 c9 -9 41 -38 71 -62 30
-25 78 -67 106 -95 54 -53 74 -70 114 -98 24 -16 -6 -17 -640 -14 -366 2 -678
7 -695 12 -16 4 -45 23 -62 41 -30 29 -33 38 -33 89 0 53 3 60 37 91 20 19 46
34 57 34 12 0 28 5 36 10 9 6 205 10 504 10 455 0 490 -1 505 -18z m1358 -14
c-18 -18 -53 -49 -77 -68 -25 -19 -74 -62 -110 -96 -36 -35 -78 -72 -95 -85
-16 -12 -60 -53 -97 -90 -37 -37 -81 -77 -97 -89 -35 -24 -33 -25 -130 70 -31
30 -81 75 -111 100 -30 25 -80 70 -110 100 -30 30 -75 71 -100 90 -25 19 -60
50 -78 68 l-33 32 536 0 536 0 -34 -32z m1621 0 c-18 -18 -49 -46 -68 -62 -62
-51 -212 -189 -299 -273 -46 -46 -87 -83 -91 -83 -5 0 -16 -7 -24 -16 -20 -19
-26 -16 -144 97 -49 46 -100 93 -113 103 -22 18 -61 53 -239 215 l-55 50 533
1 533 0 -33 -32z m580 17 c18 -4 48 -23 67 -42 31 -31 35 -41 35 -89 0 -47 -4
-59 -31 -88 -17 -19 -45 -37 -62 -41 -18 -5 -149 -10 -292 -12 l-260 -3 38 26
c22 14 75 62 119 105 43 43 85 79 91 79 7 1 28 19 47 40 l35 40 90 -4 c50 -2
105 -7 123 -11z m-1839 -82 c24 -21 72 -67 108 -102 36 -34 77 -69 91 -77 24
-12 -7 -14 -248 -14 l-275 0 40 27 c22 15 69 57 105 93 60 60 118 109 130 110
3 0 25 -17 49 -37z m-1138 -447 c31 -29 73 -66 95 -82 21 -16 56 -46 76 -66
35 -36 39 -38 103 -38 64 0 68 2 103 38 20 20 54 50 76 66 21 16 63 53 92 82
l54 54 485 0 486 0 23 -22 c49 -48 102 -95 136 -118 19 -13 52 -41 72 -62 34
-36 40 -38 98 -38 58 0 64 2 98 38 20 21 53 49 72 62 19 14 61 50 92 82 l57
58 440 0 441 0 0 -24 c0 -14 -4 -28 -10 -31 -5 -3 -10 -23 -10 -43 0 -21 -9
-48 -20 -62 -11 -14 -20 -29 -20 -33 0 -12 -21 -30 -52 -46 -16 -8 -28 -18
-28 -23 0 -4 -20 -8 -45 -8 -25 0 -45 -4 -45 -10 0 -7 -737 -10 -2190 -10
-1453 0 -2190 3 -2190 10 0 6 -17 10 -37 10 -22 0 -49 9 -63 20 -14 11 -29 20
-33 20 -12 0 -30 21 -46 53 -8 15 -18 27 -23 27 -4 0 -8 20 -8 45 0 25 -4 45
-10 45 -5 0 -10 14 -10 30 l0 30 843 0 842 -1 56 -53z"/>
</g>
</svg>
