<?xml version="1.0" standalone="no"?>
<!DOCTYPE svg PUBLIC "-//W3C//DTD SVG 20010904//EN"
 "http://www.w3.org/TR/2001/REC-SVG-20010904/DTD/svg10.dtd">
<svg version="1.0" xmlns="http://www.w3.org/2000/svg"
 width="720.000000pt" height="720.000000pt" viewBox="0 0 720.000000 720.000000"
 preserveAspectRatio="xMidYMid meet">

<g transform="translate(0.000000,720.000000) scale(0.100000,-0.100000)"
fill="#000000" stroke="none">
<path d="M2060 5970 c-25 -5 -65 -9 -89 -9 -25 -1 -58 -5 -75 -10 -17 -5 -51
-15 -76 -21 -87 -23 -204 -78 -291 -136 -62 -42 -179 -153 -179 -170 0 -4 -9
-17 -19 -28 -25 -27 -101 -176 -101 -198 0 -9 -4 -19 -9 -22 -9 -6 -18 -49
-27 -128 l-6 -48 2402 0 2402 0 -6 48 c-9 79 -18 122 -27 128 -5 3 -9 12 -9
19 0 15 -38 98 -68 150 -29 51 -98 138 -138 176 -89 84 -258 176 -379 207 -22
6 -58 15 -80 21 -57 14 -189 26 -265 23 -149 -5 -360 -29 -374 -43 -6 -5 -18
-9 -27 -9 -9 0 -46 -15 -82 -33 l-65 -33 21 -29 c12 -17 24 -32 27 -35 16 -13
73 -105 91 -146 35 -78 4 -143 -74 -151 -36 -4 -48 -1 -73 20 -17 14 -41 46
-54 71 -13 25 -27 46 -32 46 -4 0 -8 6 -8 13 -1 28 -197 197 -229 197 -6 0
-11 3 -11 8 0 4 -15 13 -32 20 -115 47 -119 49 -163 60 -158 43 -343 53 -550
33 -155 -16 -194 -22 -201 -32 -3 -5 -13 -9 -22 -9 -19 0 -152 -61 -152 -69 0
-3 10 -18 23 -33 62 -73 79 -98 108 -156 29 -58 31 -66 20 -102 -6 -22 -21
-46 -34 -55 -22 -15 -82 -20 -111 -9 -9 3 -41 45 -72 93 -78 119 -189 223
-281 262 -18 8 -33 17 -33 21 0 5 -7 8 -15 8 -8 0 -24 5 -35 10 -11 6 -29 15
-40 20 -11 6 -31 10 -44 10 -14 0 -27 4 -30 9 -6 10 -46 17 -171 30 -167 18
-191 19 -235 11z"/>
<path d="M1288 4996 c-49 -15 -95 -60 -103 -102 -15 -82 25 -146 107 -171 61
-18 4525 -19 4593 -1 27 7 58 26 77 45 29 30 33 40 33 93 0 53 -4 63 -33 93
-19 19 -50 38 -77 45 -64 17 -4542 15 -4597 -2z"/>
<path d="M1302 1967 c-131 -41 -132 -231 -3 -267 22 -6 293 -10 701 -10 l665
0 -35 31 c-29 24 -160 143 -204 184 -6 6 -28 25 -49 43 l-38 32 -502 -1 c-326
-1 -514 -5 -535 -12z"/>
<path d="M5645 1938 c-27 -24 -73 -66 -101 -94 -28 -28 -69 -64 -90 -80 -21
-16 -49 -39 -62 -51 l-23 -23 258 0 c142 0 274 5 294 10 82 23 123 124 81 199
-31 56 -80 76 -202 79 l-105 3 -50 -43z"/>
<path d="M3944 1868 c-36 -34 -82 -76 -101 -92 -20 -17 -49 -43 -66 -58 l-29
-28 271 0 272 0 -23 23 c-13 12 -39 34 -58 48 -19 14 -69 58 -110 98 -41 39
-78 71 -82 71 -4 0 -37 -28 -74 -62z"/>
<path d="M1190 1461 c0 -15 4 -41 9 -57 5 -16 12 -41 15 -56 8 -35 58 -93 97
-112 74 -37 84 -37 2329 -34 1768 3 2202 6 2233 16 40 14 101 62 118 94 14 27
39 124 39 153 l0 25 -441 0 -441 0 -64 -57 c-36 -32 -94 -86 -131 -120 -65
-62 -66 -63 -123 -63 -57 0 -58 1 -124 63 -36 34 -73 68 -83 76 -10 8 -39 34
-65 58 l-47 43 -493 0 -493 -1 -45 -40 c-25 -23 -78 -71 -119 -108 -41 -36
-80 -72 -87 -78 -7 -8 -37 -13 -71 -13 -57 1 -59 1 -124 63 -36 34 -96 88
-132 120 l-66 57 -845 0 -846 0 0 -29z"/>
</g>
</svg>
