<?xml version="1.0" standalone="no"?>
<!DOCTYPE svg PUBLIC "-//W3C//DTD SVG 20010904//EN"
 "http://www.w3.org/TR/2001/REC-SVG-20010904/DTD/svg10.dtd">
<svg version="1.0" xmlns="http://www.w3.org/2000/svg"
 width="16.000000pt" height="16.000000pt" viewBox="0 0 16.000000 16.000000"
 preserveAspectRatio="xMidYMid meet">

<g transform="translate(0.000000,16.000000) scale(0.100000,-0.100000)"
fill="#000000" stroke="none">
<path d="M0 129 c0 -16 4 -28 9 -24 5 3 12 1 16 -5 3 -5 -1 -10 -9 -10 -12 0
-16 -11 -16 -45 l0 -45 80 0 80 0 0 63 c0 37 -4 57 -9 49 -6 -10 -10 -8 -14 8
-4 16 -2 20 9 16 8 -3 14 1 14 9 0 12 -16 15 -80 15 l-80 0 0 -31z m131 -72
c-10 -9 -11 -8 -5 6 3 10 9 15 12 12 3 -3 0 -11 -7 -18z m-94 7 c-3 -3 -12 -4
-19 -1 -8 3 -5 6 6 6 11 1 17 -2 13 -5z m-3 -28 c-10 -8 -21 -12 -24 -10 -5 6
21 24 34 24 6 0 1 -6 -10 -14z"/>
</g>
</svg>
